<?xml version="1.0" encoding="UTF-8"?>
<svg id="_レイヤー_2" data-name="レイヤー 2" xmlns="http://www.w3.org/2000/svg" viewBox="0 0 132.89 55.23">
  <defs>
    <style>
      .cls-1 {
        fill: #2e1000;
      }
    </style>
  </defs>
  <g id="_レイヤー_1-2" data-name="レイヤー 1">
    <g>
      <path class="cls-1" d="M99.88,10.55c1.93,0,1.93-3,0-3s-1.93,3,0,3h0Z"/>
      <path class="cls-1" d="M44.98,46.43c1.37,2.69,2.74,5.37,4.11,8.06.36.7,1.4.96,2.05.54.71-.46.92-1.3.54-2.05-1.37-2.69-2.74-5.37-4.11-8.06-.36-.7-1.4-.96-2.05-.54-.71.46-.92,1.3-.54,2.05h0Z"/>
      <g>
        <path class="cls-1" d="M2.64,36.47C13.42,28.11,22.05,17.09,27.6,4.63c.79-1.76-1.45-3.09-2.59-1.51-3.31,4.58-4.31,10.82-2.37,16.16,1.83,5.05,5.88,8.97,10.92,10.77,1.82.65,2.61-2.25.8-2.89-4.11-1.47-7.55-4.87-8.95-9.03-1.54-4.59-.63-9.61,2.19-13.5l-2.59-1.51C19.55,15.38,11.13,26.12.52,34.35c-1.52,1.18.61,3.29,2.12,2.12h0Z"/>
        <path class="cls-1" d="M16.71,23.52l7.09-2.24c.75-.24,1.3-1.05,1.05-1.85-.24-.75-1.04-1.3-1.85-1.05l-7.09,2.24c-.75.24-1.3,1.05-1.05,1.85.24.75,1.04,1.3,1.85,1.05h0Z"/>
        <path class="cls-1" d="M48.28,14.58c-2.82,2.13-3.89,5.97-2.5,9.25s5.19,4.97,8.65,4.4c3.21-.53,5.62-3.33,6.12-6.47s-.74-6.64-3.78-8.2c-3.22-1.65-7.61-1.15-10.01,1.7-.52.62-.61,1.51,0,2.12.54.54,1.6.62,2.12,0,.2-.23.4-.45.63-.65.07-.07.31-.23.1-.09.14-.1.28-.2.43-.28.13-.08.26-.15.39-.22.05-.03.37-.17.23-.11s.24-.09.3-.11c.16-.05.33-.1.5-.15.13-.03.25-.06.38-.08.09-.02.17-.03.26-.04-.02,0-.25.03-.08.01.33-.03.65-.05.98-.04.13,0,.26,0,.39.02.09,0,.17.02.26.02-.02,0-.25-.04-.08,0,.32.06.64.12.95.22.12.04.24.08.37.12.06.02.27.11,0,0,.06.03.12.05.18.08.29.15.57.3.84.48.08.06.3.24.11.07.12.1.23.2.34.3s.21.21.31.33c.04.05.08.1.13.15.15.17-.12-.18,0,0,.16.25.32.5.45.76.03.06.05.11.08.17,0-.02-.09-.23-.03-.07s.12.32.16.48c.04.14.08.28.11.43.01.06.09.48.06.3s.02.18.02.24c.01.17.02.34.02.51,0,.28-.02.55-.05.83.03-.34-.02.08-.03.17-.03.17-.07.33-.11.5-.07.27-.16.53-.26.79.11-.3-.04.09-.08.17-.07.15-.15.3-.24.45-.07.13-.15.25-.24.38-.06.09-.22.31-.06.1-.2.25-.41.48-.64.69-.04.04-.3.27-.18.17s-.2.14-.26.18c-.12.08-.25.16-.38.23-.06.03-.11.06-.17.09-.03.02-.37.16-.2.1.11-.04-.21.07-.28.09-.15.05-.31.09-.47.13-.07.02-.48.09-.35.07.17-.02-.06,0-.08,0-.09,0-.18.02-.28.02-.33.02-.65,0-.97-.02-.02,0-.25-.03-.08,0,.19.03-.1-.02-.14-.03-.16-.03-.32-.06-.48-.11s-.31-.09-.47-.14c-.07-.03-.47-.19-.22-.08-.3-.13-.58-.28-.85-.46-.08-.05-.15-.1-.23-.15-.01,0-.19-.14-.07-.05s-.05-.05-.06-.05c-.07-.06-.14-.12-.21-.18-.1-.09-.2-.19-.29-.29-.06-.07-.35-.43-.21-.23-.22-.3-.4-.61-.56-.95.12.25-.07-.2-.1-.28-.05-.15-.09-.3-.13-.46-.02-.09-.04-.18-.06-.27,0-.03-.05-.31-.03-.14s0-.05,0-.07c0-.11-.02-.23-.02-.34,0-.18,0-.36,0-.55,0-.07,0-.14.01-.21,0-.04.05-.4.02-.21-.03.17.01-.05.02-.07.02-.09.03-.18.05-.27.04-.18.09-.35.14-.53.03-.09.19-.53.09-.28.07-.17.15-.33.24-.49s.18-.31.28-.46c.04-.06.08-.11.12-.17.13-.19-.14.16.02-.02.12-.14.24-.27.37-.4.05-.05.1-.09.15-.14.02-.02.36-.29.12-.11.65-.49.98-1.29.54-2.05-.37-.64-1.4-1.03-2.05-.54h0Z"/>
        <path class="cls-1" d="M74.04,1.42c-2.31,10.08-2.21,20.58.32,30.61.47,1.87,3.37,1.08,2.89-.8-2.4-9.5-2.51-19.46-.32-29.02.43-1.88-2.46-2.68-2.89-.8h0Z"/>
        <path class="cls-1" d="M81.2,18.69c-1.99.79-4.1,1.63-5.54,3.3-1.32,1.53-2.02,3.79-1.32,5.75s2.64,3.15,4.72,3.05c1.96-.09,3.78-.97,5.32-2.13,1.64-1.23,3.43-2.91,5.64-2.65.81.1,1.5-.76,1.5-1.5,0-.89-.69-1.4-1.5-1.5-2.37-.28-4.47,1.05-6.28,2.41-1.44,1.08-3.07,2.36-4.86,2.38-.62,0-1.18-.14-1.56-.72s-.31-1.42-.03-2.12c.73-1.86,2.98-2.69,4.7-3.37.75-.3,1.28-1,1.05-1.85-.2-.72-1.09-1.35-1.85-1.05h0Z"/>
        <path class="cls-1" d="M98.24,17.79c-.25,2.88-.51,5.76-.76,8.64-.07.78.74,1.53,1.5,1.5.87-.04,1.43-.66,1.5-1.5.25-2.88.51-5.76.76-8.64.07-.78-.74-1.53-1.5-1.5-.87.04-1.43.66-1.5,1.5h0Z"/>
        <path class="cls-1" d="M32.86,37.17c2.61,5.75,9.1,9.46,15.39,8.66s11.5-5.7,12.79-11.8c.4-1.88-2.49-2.69-2.89-.8-1.04,4.91-5.19,9.02-10.25,9.64s-10.31-2.52-12.45-7.22c-.8-1.76-3.38-.23-2.59,1.51h0Z"/>
        <path class="cls-1" d="M64.18,44.99c.85,3.97,4.93,6.84,8.95,6.27,4.01-.56,7.13-4.51,6.81-8.54l-2.26,1.3c1.81,1.18,3.63,2.36,5.44,3.54,1.62,1.06,3.13-1.54,1.51-2.59-1.81-1.18-3.63-2.36-5.44-3.54-.91-.59-2.35.17-2.26,1.3.2,2.56-1.58,5.19-4.21,5.59s-5.12-1.62-5.66-4.12c-.4-1.89-3.3-1.09-2.89.8h0Z"/>
        <path class="cls-1" d="M88.87,41.81l6.16.48-1.06-2.56c-2.35,2.74-4.69,5.49-7.04,8.23-.95,1.11-.06,2.9,1.46,2.51,3.81-.98,7.62-1.96,11.44-2.94,1.87-.48,1.08-3.37-.8-2.89-3.81.98-7.62,1.96-11.44,2.94l1.46,2.51c2.35-2.74,4.69-5.49,7.04-8.23.87-1.02.27-2.46-1.06-2.56l-6.16-.48c-.81-.06-1.5.73-1.5,1.5,0,.86.69,1.44,1.5,1.5h0Z"/>
        <path class="cls-1" d="M99.91,42.07c1.99,3.64,6.5,5.63,10.52,4.52s6.99-5.34,6.67-9.55l-2.56,1.06c1.68,1.75,3.36,3.51,5.04,5.26,1.34,1.4,3.46-.73,2.12-2.12-1.68-1.75-3.36-3.51-5.04-5.26-.86-.89-2.66-.25-2.56,1.06.22,2.91-1.58,5.87-4.47,6.66s-5.78-.67-7.14-3.14c-.93-1.69-3.52-.18-2.59,1.51h0Z"/>
        <path class="cls-1" d="M131.44,45.19c1.93,0,1.93-3,0-3s-1.93,3,0,3h0Z"/>
      </g>
    </g>
  </g>
</svg>